<?xml version="1.0" encoding="UTF-8"?>
<svg version="1.1" xmlns="http://www.w3.org/2000/svg" width="512" height="512">
<path d="M0 0 C0.91793024 -0.00507454 1.83586048 -0.01014909 2.78160679 -0.0153774 C3.78645363 -0.01587516 4.79130047 -0.01637292 5.82659721 -0.01688576 C7.43210168 -0.02345914 7.43210168 -0.02345914 9.07004058 -0.03016531 C12.66881603 -0.04355623 16.26756698 -0.04973286 19.86636162 -0.0558567 C22.44182763 -0.06375742 25.01729254 -0.07202636 27.59275627 -0.08063698 C35.33016474 -0.10514065 43.06757959 -0.11978504 50.80501491 -0.13269705 C52.99121966 -0.13641043 55.17742379 -0.14038354 57.36362791 -0.14444971 C70.94627976 -0.16968743 84.52893266 -0.19173556 98.11160278 -0.20417786 C101.25658103 -0.20710744 104.40155924 -0.21006912 107.5465374 -0.21308327 C108.32818397 -0.21382932 109.10983055 -0.21457537 109.91516338 -0.21534403 C122.57291426 -0.22799343 135.23052454 -0.26121216 147.88820972 -0.3028851 C160.89030825 -0.34534025 173.89233487 -0.368877 186.89450252 -0.37409842 C194.19203308 -0.37750845 201.48934389 -0.38921532 208.78680611 -0.42220116 C215.65361091 -0.45318993 222.52002725 -0.45859844 229.38689041 -0.4468174 C231.90474753 -0.44659655 234.42262235 -0.45491104 236.94041824 -0.47247124 C240.38348772 -0.49517415 243.82517031 -0.48686083 247.2682476 -0.47098732 C248.25971011 -0.48486941 249.25117262 -0.49875149 250.27267945 -0.51305425 C258.32991636 -0.42181308 265.08286558 1.87514433 270.92837334 7.57451439 C274.01423337 12.84619195 274.68534897 17.56680732 274.73476982 23.62358665 C274.74309334 24.34794914 274.75141685 25.07231163 274.7599926 25.8186245 C274.78395672 28.19694552 274.79284553 30.57499196 274.79946709 32.95342064 C274.80844003 34.6143864 274.81756199 36.27535137 274.8268261 37.93631554 C274.84327898 41.41038028 274.8510101 44.88434903 274.85391045 48.35844994 C274.85930685 52.80631048 274.89705366 57.2532683 274.94265461 61.70087337 C274.97240865 65.12815205 274.97963355 68.55521218 274.9806366 71.9826088 C274.9848381 73.62246865 274.99726973 75.26232921 275.01815414 76.90206146 C275.04505148 79.19533028 275.04025157 81.48648998 275.02773857 83.77983665 C275.03280922 85.08300331 275.03787987 86.38616997 275.04310417 87.72882652 C274.26865256 92.02253757 272.83674299 93.49395243 269.42837334 96.13701439 C265.92837334 96.76201439 265.92837334 96.76201439 262.42837334 96.13701439 C260.77837334 94.48701439 259.12837334 92.83701439 257.42837334 91.13701439 C257.42837334 80.90701439 257.42837334 70.67701439 257.42837334 60.13701439 C171.29837334 60.13701439 85.16837334 60.13701439 -3.57162666 60.13701439 C-3.42725166 86.51638939 -3.28287666 112.89576439 -3.13412666 140.07451439 C-3.09102364 148.41853539 -3.04792061 156.76255638 -3.00351143 165.3594265 C-2.96028087 172.80792439 -2.96028087 172.80792439 -2.91572762 180.25641441 C-2.89584512 183.58636193 -2.87877219 186.91631143 -2.86335945 190.24628258 C-2.84364693 194.48570903 -2.81923285 198.72508323 -2.79132068 202.96446335 C-2.78186111 204.52541479 -2.77409465 206.08637757 -2.76815712 207.64734638 C-2.7599392 209.74580261 -2.74569524 211.84413078 -2.72984505 213.94254112 C-2.7233925 215.12151435 -2.71693995 216.30048758 -2.71029186 217.51518726 C-2.8685952 220.06297055 -2.8685952 220.06297055 -1.57162666 221.13701439 C1.11006052 221.23557423 3.76672792 221.27001269 6.44888115 221.26299095 C7.70989395 221.26579315 7.70989395 221.26579315 8.99638176 221.26865196 C10.82869217 221.27266609 12.66100761 221.27473172 14.49332237 221.27511406 C18.38597247 221.27851767 22.27845374 221.29986697 26.1710453 221.32034492 C33.42595119 221.35842648 40.68068046 221.38963003 47.93569756 221.38750267 C52.97508606 221.38671604 58.01386234 221.41006191 63.05309105 221.44938469 C64.97478039 221.4598574 66.89654029 221.46135939 68.81824303 221.45373344 C71.50959857 221.44412112 74.19909935 221.46527612 76.8902874 221.4934597 C77.68425423 221.48326302 78.47822105 221.47306633 79.29624748 221.46256065 C83.33103379 221.53829468 85.2166503 221.97159488 88.43465996 224.48583031 C90.42837334 227.13701439 90.42837334 227.13701439 90.86587334 230.19951439 C90.44094847 233.05258138 90.09749503 234.80024402 88.42837334 237.13701439 C84.63387732 239.81174642 80.39933322 239.43256268 75.94717216 239.42754173 C75.09297691 239.43425896 74.23878166 239.44097618 73.35870171 239.44789696 C70.53421013 239.4668961 67.7099561 239.47080262 64.88540459 239.47295189 C62.91727921 239.47938028 60.94915479 239.48610868 58.98103142 239.49312401 C54.85269775 239.50510285 50.72444777 239.50880439 46.59609795 239.50761986 C41.32143701 239.50741705 36.04731717 239.53467719 30.77278423 239.56916428 C26.70540242 239.59147335 22.63814976 239.59545611 18.57071304 239.59440041 C16.62716311 239.59675194 14.68360937 239.60555013 12.74011993 239.62106514 C10.01188511 239.64079896 7.28480304 239.63485755 4.55654716 239.62285423 C3.7629731 239.63409325 2.96939903 239.64533226 2.15177727 239.65691185 C-4.17829451 239.58661897 -10.36661023 238.04180128 -15.16853809 233.68969345 C-19.97335393 228.12472213 -20.86746183 223.91599867 -20.84578133 216.69945335 C-20.85101801 215.84005063 -20.85625468 214.98064791 -20.86165005 214.09520268 C-20.87667313 211.21033005 -20.87735571 208.32563442 -20.87802315 205.44072533 C-20.88564314 203.37432111 -20.89407036 201.30791973 -20.90324593 199.24152184 C-20.92521512 193.62362667 -20.93399324 188.00578594 -20.93907237 182.38785267 C-20.94271345 178.87809858 -20.94895226 175.3683588 -20.95607376 171.85861015 C-20.98057785 159.61432836 -20.99362198 147.37008898 -20.99716377 135.12578392 C-21.00079852 123.7127385 -21.03068723 112.29996209 -21.07256836 100.88699889 C-21.10726263 91.08898806 -21.12271208 81.2910664 -21.12340981 71.49299455 C-21.12420299 65.64086176 -21.13296074 59.78900284 -21.16140747 53.93693352 C-21.18757263 48.4309355 -21.18980166 42.92543867 -21.17375183 37.41940689 C-21.17193605 35.40060585 -21.17863962 33.38177611 -21.19457054 31.36303711 C-21.21502561 28.60226937 -21.20448279 25.84325607 -21.1863575 23.08250999 C-21.19955747 22.28755111 -21.21275743 21.49259223 -21.2263574 20.67354369 C-21.13802481 14.76458244 -19.33210287 10.69812283 -15.57162666 6.13701439 C-10.6514875 1.80421121 -6.59646148 0.01941181 0 0 Z M-3.57162666 19.13701439 C-3.57162666 27.05701439 -3.57162666 34.97701439 -3.57162666 43.13701439 C82.55837334 43.13701439 168.68837334 43.13701439 257.42837334 43.13701439 C257.42837334 35.21701439 257.42837334 27.29701439 257.42837334 19.13701439 C255.01417828 16.72281934 254.47118465 16.88670661 251.17420006 16.88533211 C250.2762187 16.88011661 249.37823733 16.87490112 248.45304441 16.86952758 C247.46026062 16.87398902 246.46747684 16.87845047 245.44460869 16.8830471 C244.39483801 16.87992712 243.34506734 16.87680714 242.26348543 16.87359262 C238.72268893 16.86557336 235.18206194 16.87195154 231.64126396 16.87822533 C229.11222546 16.87551721 226.58318774 16.87195729 224.05415154 16.86760521 C217.88412786 16.85940896 211.71416764 16.86064076 205.54414308 16.86643049 C200.53133137 16.87094031 195.5185333 16.87156284 190.50572014 16.86938286 C189.79330073 16.86907639 189.08088131 16.86876993 188.34687343 16.86845417 C186.89977896 16.86781475 185.45268449 16.86716632 184.00559002 16.86650899 C170.42407426 16.86080072 156.84258546 16.86737138 143.26107413 16.87810972 C131.59791426 16.88704569 119.9347942 16.88549379 108.27163506 16.8762722 C94.73997641 16.86557834 81.20834142 16.86135008 67.67667913 16.86749673 C66.23479494 16.86813385 64.79291074 16.86876259 63.35102654 16.86938286 C62.6415216 16.86969141 61.93201666 16.86999996 61.20101157 16.87031786 C56.19202032 16.87204746 51.18304403 16.86912401 46.1740551 16.86442375 C39.43706417 16.85824119 32.70016032 16.86261894 25.96317291 16.87421227 C23.48389944 16.87686709 21.00461966 16.87607985 18.52534866 16.87168694 C15.15419131 16.86626241 11.78327948 16.87302787 8.41213799 16.8830471 C6.9229623 16.87635494 6.9229623 16.87635494 5.40370226 16.86952758 C4.5057209 16.87474307 3.60773953 16.87995857 2.68254662 16.88533211 C1.9036852 16.88565681 1.12482379 16.88598152 0.32236052 16.88631606 C-1.81379961 16.97371707 -1.81379961 16.97371707 -3.57162666 19.13701439 Z " fill="#000000" transform="translate(27.571626663208008,19.862985610961914)"/>
<path d="M0 0 C2.0929287 -0.01941042 4.18191982 -0.08145074 6.27392578 -0.14453125 C15.94717044 -0.29928863 15.94717044 -0.29928863 19.25317383 1.70874023 C21.52776173 4.30587182 22.69311927 7.18245737 23.29345703 10.54296875 C24.30505619 13.60129178 25.08350771 14.38798575 27.87158203 16.13671875 C33.44073982 18.60580348 37.18393731 19.98368269 43.23095703 18.48046875 C44.03533203 18.12984375 44.83970703 17.77921875 45.66845703 17.41796875 C49.23780071 16.11211131 51.44137827 15.90239741 55.23095703 16.48046875 C58.28291917 18.41602049 60.69427725 20.9225081 63.23095703 23.48046875 C64.27680529 24.50365471 65.32375567 25.52571488 66.37158203 26.546875 C76.05273096 36.05466015 76.05273096 36.05466015 76.54345703 39.98046875 C76.22611274 43.53472485 75.49272524 44.91845315 73.85595703 47.98046875 C71.79301884 52.87067115 72.43885073 55.84654818 74.23095703 60.79296875 C76.52177172 66.00564231 79.12433798 68.51586977 84.48095703 70.60546875 C85.51736328 70.89679688 86.55376953 71.188125 87.62158203 71.48828125 C90.23095703 72.48046875 90.23095703 72.48046875 91.37084961 74.14624023 C93.25635393 79.26327312 92.64402876 85.03017811 92.66845703 90.41796875 C92.70132813 91.69349609 92.73419922 92.96902344 92.76806641 94.28320312 C92.82204716 103.64150212 92.82204716 103.64150212 89.93017578 107.74609375 C85.81303675 110.39154922 82.26980715 112.48046875 77.23095703 112.48046875 C76.94091797 113.45886719 76.94091797 113.45886719 76.64501953 114.45703125 C76.38462891 115.33101563 76.12423828 116.205 75.85595703 117.10546875 C75.58912109 118.02457031 75.32228516 118.94367188 75.04736328 119.890625 C74.23095703 122.48046875 74.23095703 122.48046875 72.79345703 125.54296875 C72.0216638 129.57344452 73.55395003 131.65949208 75.30908203 135.25390625 C76.78387207 138.81589913 76.48052554 140.86329676 75.23095703 144.48046875 C73.1800816 147.43870119 70.76059731 149.9280799 68.23095703 152.48046875 C67.39048828 153.35832031 66.55001953 154.23617187 65.68408203 155.140625 C57.92179012 163.12108784 57.92179012 163.12108784 54.23095703 164.48046875 C50.98959121 164.28980017 48.17700083 163.90800778 45.19970703 162.5625 C41.34399361 160.85117792 39.21776885 160.19487666 35.05908203 161.3984375 C32.92845989 162.30828452 30.8180894 163.26757292 28.73486328 164.28125 C26.23095703 165.48046875 26.23095703 165.48046875 24.23095703 165.48046875 C24.14845703 166.14046875 24.06595703 166.80046875 23.98095703 167.48046875 C22.90279969 171.7930981 21.43287661 177.07295241 17.52294922 179.57226562 C12.75448996 181.46177015 7.35345407 180.8067412 2.29345703 180.79296875 C1.11332031 180.80908203 -0.06681641 180.82519531 -1.28271484 180.84179688 C-2.99104492 180.84276367 -2.99104492 180.84276367 -4.73388672 180.84375 C-5.77150146 180.84673096 -6.80911621 180.84971191 -7.87817383 180.8527832 C-11.21837214 180.42259974 -13.08262135 179.485487 -15.76904297 177.48046875 C-17.14794922 174.73828125 -17.14794922 174.73828125 -18.33154297 171.60546875 C-20.66484287 166.65622695 -22.59302036 164.36630352 -27.58154297 162.04296875 C-33.66432255 159.98777219 -37.11905982 160.89543785 -42.76904297 163.48046875 C-48.81022173 165.01636166 -48.81022173 165.01636166 -52.48779297 162.9609375 C-56.60636605 160.0507352 -60.05923321 156.44307011 -63.58154297 152.85546875 C-64.26152344 152.17484375 -64.94150391 151.49421875 -65.64208984 150.79296875 C-72.0657114 144.31170752 -72.0657114 144.31170752 -72.08935547 138.58984375 C-71.6930536 135.98005096 -70.64683766 134.08111361 -69.45654297 131.73046875 C-67.98298313 128.40093736 -67.60748539 127.04852603 -68.61669922 123.5 C-69.52774855 121.57892941 -70.4982639 119.68457044 -71.53466797 117.828125 C-72.76904297 115.48046875 -72.76904297 115.48046875 -72.76904297 112.48046875 C-73.42904297 112.39796875 -74.08904297 112.31546875 -74.76904297 112.23046875 C-80.08090639 110.90250289 -84.68877327 109.10087329 -87.76904297 104.48046875 C-88.17686804 100.3545813 -88.14065038 96.2282927 -88.13964844 92.08374023 C-88.14402132 90.05302021 -88.18034834 88.02447608 -88.21826172 85.99414062 C-88.22212891 84.71216797 -88.22599609 83.43019531 -88.22998047 82.109375 C-88.23819824 80.9344751 -88.24641602 79.7595752 -88.25488281 78.54907227 C-87.67141599 74.86384888 -86.65818008 73.75541401 -83.76904297 71.48046875 C-81.47998047 70.21484375 -81.47998047 70.21484375 -79.14404297 69.23046875 C-77.98001953 68.72773438 -77.98001953 68.72773438 -76.79248047 68.21484375 C-74.76904297 67.48046875 -74.76904297 67.48046875 -72.76904297 67.48046875 C-72.57568359 66.81660156 -72.38232422 66.15273437 -72.18310547 65.46875 C-71.79251953 64.14423828 -71.79251953 64.14423828 -71.39404297 62.79296875 C-71.12720703 61.87257812 -70.86037109 60.9521875 -70.58544922 60.00390625 C-69.76904297 57.48046875 -69.76904297 57.48046875 -68.33154297 54.91796875 C-67.48959707 51.26953652 -69.20253186 48.96240426 -70.78076172 45.67578125 C-72.18335321 42.56014323 -72.55540916 40.84039701 -71.76904297 37.48046875 C-69.78115707 34.47778795 -67.28611149 32.0427787 -64.76904297 29.48046875 C-63.74098629 28.34818043 -62.71510131 27.21391806 -61.69091797 26.078125 C-60.57274824 24.87739379 -59.45294652 23.67818035 -58.33154297 22.48046875 C-57.80665283 21.89193115 -57.2817627 21.30339355 -56.7409668 20.69702148 C-53.82370038 17.66798241 -51.88902911 16.10251109 -47.58544922 16.0078125 C-43.76904297 16.48046875 -43.76904297 16.48046875 -40.14404297 18.04296875 C-36.17220268 19.7346785 -34.8658856 19.68542246 -30.76904297 18.48046875 C-29.57021484 18.20976563 -29.57021484 18.20976563 -28.34716797 17.93359375 C-23.94832473 16.6581895 -21.46507301 15.68944983 -19.12060547 11.6171875 C-18.2801537 9.49058985 -17.50410797 7.33705874 -16.80419922 5.16015625 C-14.16306372 -1.67689641 -6.16514115 0.03464373 0 0 Z M-2.76904297 17.48046875 C-3.02814453 18.20492187 -3.28724609 18.929375 -3.55419922 19.67578125 C-6.0288515 25.35158924 -8.217969 28.75847145 -14.10107422 31.19848633 C-17.30210375 32.361385 -20.53398844 33.41576726 -23.76904297 34.48046875 C-25.4684484 35.26776392 -27.15863866 36.07582644 -28.83154297 36.91796875 C-32.51249541 38.58233936 -34.82508772 38.7353636 -38.76904297 37.48046875 C-39.63529297 37.10921875 -40.50154297 36.73796875 -41.39404297 36.35546875 C-43.66033967 35.35200122 -43.66033967 35.35200122 -45.76904297 35.54296875 C-48.71563368 36.92418315 -50.58321141 39.11248456 -52.76904297 41.48046875 C-52.55248047 42.06054688 -52.33591797 42.640625 -52.11279297 43.23828125 C-51.83435547 44.01945312 -51.55591797 44.800625 -51.26904297 45.60546875 C-50.99060547 46.37117188 -50.71216797 47.136875 -50.42529297 47.92578125 C-48.83609007 54.1123211 -50.26115926 58.314095 -53.08154297 63.85546875 C-55.09580822 67.9212361 -56.96876096 71.78622044 -58.20654297 76.16796875 C-60.11254222 80.20868716 -61.83193367 81.09983357 -65.83154297 82.7890625 C-67.47006355 83.3737765 -69.11859572 83.93031967 -70.76904297 84.48046875 C-70.76904297 88.11046875 -70.76904297 91.74046875 -70.76904297 95.48046875 C-68.26310547 96.16109375 -68.26310547 96.16109375 -65.70654297 96.85546875 C-60.38691042 99.19692864 -58.69893488 101.84459849 -56.63842773 107.02587891 C-55.52913361 110.15782024 -54.49730629 113.31020134 -53.49633789 116.47827148 C-52.76829922 118.68847788 -52.76829922 118.68847788 -51.06982422 121.265625 C-49.5533257 123.84777112 -49.51405165 124.99752602 -49.95654297 127.91796875 C-50.07255859 128.68882812 -50.18857422 129.4596875 -50.30810547 130.25390625 C-50.89568058 133.09219278 -51.72909262 135.77659784 -52.76904297 138.48046875 C-50.45904297 140.79046875 -48.14904297 143.10046875 -45.76904297 145.48046875 C-44.59341797 144.98546875 -43.41779297 144.49046875 -42.20654297 143.98046875 C-37.21984717 141.88080736 -32.68059185 141.77510016 -27.59326172 143.65234375 C-26.55814453 144.173125 -25.52302734 144.69390625 -24.45654297 145.23046875 C-20.4135129 147.24500502 -16.5880925 148.8703171 -12.26904297 150.16796875 C-7.85296467 151.82939235 -6.5849217 153.98547421 -4.64404297 158.23046875 C-3.98459241 159.96777988 -3.34753398 161.71454883 -2.76904297 163.48046875 C0.53095703 163.48046875 3.83095703 163.48046875 7.23095703 163.48046875 C7.47845703 162.68382812 7.72595703 161.8871875 7.98095703 161.06640625 C9.99878003 155.88312342 11.78036788 151.85074956 16.98095703 149.453125 C20.37718133 148.13456301 23.84444804 147.09581623 27.34570312 146.09570312 C30.11945778 145.19051513 32.63201666 143.79491842 35.23095703 142.48046875 C41.00676211 141.83871263 44.99673737 143.27658679 50.23095703 145.48046875 C52.54095703 143.17046875 54.85095703 140.86046875 57.23095703 138.48046875 C56.73595703 137.11921875 56.24095703 135.75796875 55.73095703 134.35546875 C53.80169964 129.05001091 53.54246637 125.21206991 55.65673828 119.89453125 C56.27377229 118.62566809 56.90314465 117.36274547 57.54345703 116.10546875 C59.56633643 112.04485041 61.39156879 108.28058069 62.48095703 103.85546875 C65.19566118 98.6199679 69.85157791 97.38014762 75.23095703 95.48046875 C75.23095703 92.18046875 75.23095703 88.88046875 75.23095703 85.48046875 C74.48330078 85.16335937 73.73564453 84.84625 72.96533203 84.51953125 C63.92194115 80.23457379 63.92194115 80.23457379 61.91845703 74.91796875 C61.65935547 74.06589844 61.40025391 73.21382812 61.13330078 72.3359375 C59.7166135 67.85282755 57.49346369 63.76055639 55.40283203 59.55859375 C53.4887718 54.53099554 53.92017606 50.58511643 55.73095703 45.60546875 C56.00939453 44.82429688 56.28783203 44.043125 56.57470703 43.23828125 C56.79126953 42.65820312 57.00783203 42.078125 57.23095703 41.48046875 C55.37558964 39.28080637 53.5100881 37.24652529 51.23095703 35.48046875 C48.24026929 35.48046875 46.53681056 36.33559076 43.85595703 37.60546875 C38.15149423 39.50695635 32.94309547 37.13931777 27.79345703 34.60546875 C24.09631869 32.81433498 20.51805657 31.16897285 16.60595703 29.91796875 C12.71928267 28.26253337 11.90708052 27.27380085 10.23095703 23.48046875 C9.67408203 22.38734375 9.11720703 21.29421875 8.54345703 20.16796875 C8.11033203 19.28109375 7.67720703 18.39421875 7.23095703 17.48046875 C3.93095703 17.48046875 0.63095703 17.48046875 -2.76904297 17.48046875 Z " fill="#000000" transform="translate(254.76904296875,103.51953125)"/>
<path d="M0 0 C0.65564941 -0.00511093 1.31129883 -0.01022186 1.98681641 -0.01548767 C4.154227 -0.02938721 6.32131966 -0.02842644 8.48876953 -0.02612305 C9.99708169 -0.03001032 11.50539275 -0.03434506 13.01370239 -0.03910828 C16.17616319 -0.04657164 19.33851237 -0.0462788 22.50097656 -0.04101562 C26.54851727 -0.03522646 30.59559956 -0.05213764 34.6430645 -0.0753603 C37.75894837 -0.09011303 40.87472231 -0.09096717 43.99063492 -0.08785057 C45.48253409 -0.0883632 46.97443952 -0.09359 48.46630478 -0.10366249 C50.55596161 -0.11603741 52.64473173 -0.10922955 54.734375 -0.09765625 C55.92223602 -0.09828568 57.11009705 -0.0989151 58.33395386 -0.0995636 C61.81943178 0.31285979 63.70415507 1.18446973 66.49658203 3.2746582 C67.93248624 6.14646663 67.65573021 8.63848612 67.68945312 11.84814453 C67.70171936 12.86066032 67.70171936 12.86066032 67.7142334 13.89363098 C67.73908026 16.13130811 67.75560174 18.36892182 67.77001953 20.60668945 C67.77534321 21.37089392 67.78066689 22.13509838 67.78615189 22.92246056 C67.81288084 26.96766533 67.8322562 31.01283927 67.84667969 35.05810547 C67.86332425 39.23477488 67.90809996 43.4106547 67.95905113 47.58702564 C67.99272088 50.79982908 68.00425672 54.01244504 68.00990677 57.22540855 C68.01662046 58.76480835 68.03184588 60.30419575 68.05579758 61.84342384 C68.0874488 64.00059806 68.08748768 66.15564247 68.08007812 68.31298828 C68.08816498 69.53939529 68.09625183 70.76580231 68.10458374 72.02937317 C67.30552836 76.29443103 65.98252127 77.73632076 62.49658203 80.2746582 C59.30944824 80.90284729 59.30944824 80.90284729 55.67431641 80.90576172 C55.00862137 80.91291702 54.34292633 80.92007233 53.65705872 80.92744446 C51.46744102 80.94428512 49.27988456 80.92496022 47.09033203 80.90356445 C45.56245759 80.9043936 44.03458325 80.90685471 42.50671387 80.91087341 C39.30888938 80.9137282 36.11176653 80.89906278 32.9140625 80.87158203 C28.82151916 80.8374987 24.73023003 80.84351987 20.63762665 80.86224461 C17.48392339 80.87282923 14.3305104 80.86386373 11.17683411 80.84885979 C9.66820641 80.84368817 8.15954827 80.84414739 6.65092468 80.85040474 C4.5395728 80.85587512 2.42999694 80.83542842 0.31884766 80.80810547 C-0.88074585 80.80190689 -2.08033936 80.79570831 -3.31628418 80.7893219 C-7.1377517 80.17222493 -8.79922712 79.00170077 -11.50341797 76.2746582 C-12.61015438 72.95444896 -12.64379535 70.45279708 -12.66455078 66.95483398 C-12.67415833 65.64982941 -12.68376587 64.34482483 -12.69366455 63.00027466 C-12.69851242 61.57350845 -12.70279128 60.14674021 -12.70654297 58.7199707 C-12.71229663 57.25650023 -12.71805433 55.79302977 -12.72381592 54.32955933 C-12.73431763 51.26128794 -12.74016577 48.19304269 -12.74365234 45.12475586 C-12.74913649 41.19830965 -12.77316597 37.27221032 -12.8016243 33.34587288 C-12.82027219 30.32265216 -12.8254574 27.29951467 -12.82698822 24.2762413 C-12.83001025 22.82898944 -12.83802365 21.38173889 -12.8511734 19.93454361 C-12.86827751 17.90752299 -12.86450253 15.88035895 -12.85986328 13.85327148 C-12.86350891 12.70094025 -12.86715454 11.54860901 -12.87091064 10.36135864 C-12.45770911 6.89073341 -11.59303297 5.05270572 -9.50341797 2.2746582 C-5.90660877 -0.1232146 -4.27648199 0.01660957 0 0 Z M4.49658203 17.2746582 C4.49658203 32.4546582 4.49658203 47.6346582 4.49658203 63.2746582 C19.67658203 63.2746582 34.85658203 63.2746582 50.49658203 63.2746582 C50.49658203 48.0946582 50.49658203 32.9146582 50.49658203 17.2746582 C35.31658203 17.2746582 20.13658203 17.2746582 4.49658203 17.2746582 Z " fill="#000000" transform="translate(20.50341796875,411.725341796875)"/>
<path d="M0 0 C0.65579544 -0.00671722 1.31159088 -0.01343445 1.98725891 -0.02035522 C4.14921704 -0.03931062 6.3108644 -0.04325792 8.47290039 -0.04541016 C9.97978339 -0.05183916 11.48666514 -0.05856759 12.99354553 -0.06558228 C16.15002334 -0.07754839 19.30639174 -0.08126373 22.46289062 -0.08007812 C26.50266722 -0.07987482 30.54174123 -0.10719102 34.58135128 -0.14162254 C37.6929495 -0.16388505 40.80437835 -0.1679159 43.91604805 -0.16685867 C45.40517158 -0.16921508 46.89429975 -0.17804094 48.38334465 -0.19352341 C50.46830038 -0.21317458 52.55173729 -0.20735122 54.63671875 -0.1953125 C56.41398598 -0.19958755 56.41398598 -0.19958755 58.22715759 -0.20394897 C62.01891172 0.39015514 63.66685208 1.63296289 66.38305664 4.29052734 C67.80155424 7.12752254 67.518172 9.52408934 67.52832031 12.69628906 C67.53167892 13.35339874 67.53503754 14.01050842 67.53849792 14.68753052 C67.5480156 16.86511107 67.54995153 19.04261477 67.55102539 21.22021484 C67.55423772 22.73235099 67.55760178 24.24448683 67.56111145 25.75662231 C67.56710498 28.92922689 67.56895115 32.10180422 67.56835938 35.27441406 C67.56825781 39.33879117 67.58190295 43.40299336 67.59913158 47.46732903 C67.61025398 50.59173382 67.6122785 53.71609638 67.61174965 56.84051895 C67.61292968 58.33882372 67.61735274 59.83712959 67.62508202 61.33541489 C67.6348856 63.43239303 67.63200247 65.52899225 67.62597656 67.62597656 C67.62740158 68.8190744 67.6288266 70.01217224 67.6302948 71.24142456 C67.38742659 74.23663429 67.13176325 75.87105642 65.38305664 78.29052734 C62.02716771 80.71128437 58.79221447 80.5438984 54.75024414 80.54931641 C54.09284241 80.55282104 53.43544067 80.55632568 52.75811768 80.55993652 C50.59132233 80.56871818 48.42485514 80.56291748 46.25805664 80.55615234 C44.74877866 80.55750002 43.2395011 80.55944142 41.73022461 80.56195068 C38.56953797 80.56489711 35.40896449 80.56061984 32.24829102 80.55126953 C28.19964591 80.53987521 24.15126599 80.54643727 20.10263062 80.55841446 C16.98679613 80.56564609 13.87102438 80.56333915 10.75518799 80.55815887 C9.2624712 80.55682598 7.76974869 80.55845747 6.27703857 80.56311798 C4.18982891 80.5682047 2.103047 80.56044325 0.01586914 80.54931641 C-1.17119629 80.54772522 -2.35826172 80.54613403 -3.58129883 80.54449463 C-6.56609231 80.29478163 -8.20332787 80.03157919 -10.61694336 78.29052734 C-13.03770038 74.93463841 -12.87031441 71.69968517 -12.87573242 67.65771484 C-12.87923706 67.00031311 -12.8827417 66.34291138 -12.88635254 65.66558838 C-12.8951342 63.49879303 -12.88933349 61.33232585 -12.88256836 59.16552734 C-12.88391604 57.65624936 -12.88585743 56.14697181 -12.8883667 54.63769531 C-12.89131312 51.47700867 -12.88703585 48.31643519 -12.87768555 45.15576172 C-12.86629123 41.10711662 -12.87285329 37.0587367 -12.88483047 33.01010132 C-12.89206211 29.89426683 -12.88975517 26.77849508 -12.88457489 23.66265869 C-12.883242 22.1699419 -12.88487349 20.67721939 -12.889534 19.18450928 C-12.89462072 17.09729962 -12.88685926 15.0105177 -12.87573242 12.92333984 C-12.87414124 11.73627441 -12.87255005 10.54920898 -12.87091064 9.32617188 C-12.62119765 6.34137839 -12.35799521 4.70414283 -10.61694336 2.29052734 C-7.2685469 -0.11954431 -4.03189167 0.02595966 0 0 Z M4.38305664 17.29052734 C4.38305664 32.47052734 4.38305664 47.65052734 4.38305664 63.29052734 C19.56305664 63.29052734 34.74305664 63.29052734 50.38305664 63.29052734 C50.38305664 48.11052734 50.38305664 32.93052734 50.38305664 17.29052734 C35.20305664 17.29052734 20.02305664 17.29052734 4.38305664 17.29052734 Z " fill="#000000" transform="translate(229.616943359375,411.70947265625)"/>
<path d="M0 0 C0.66569504 -0.0071553 1.33139008 -0.01431061 2.01725769 -0.02168274 C4.20687538 -0.03852341 6.39443185 -0.0191985 8.58398438 0.00219727 C10.11185881 0.00136812 11.63973316 -0.00109299 13.16760254 -0.00511169 C16.36542703 -0.00796648 19.56254987 0.00669894 22.76025391 0.03417969 C26.85279724 0.06826302 30.94408637 0.06224185 35.03668976 0.04351711 C38.19039302 0.03293249 41.34380601 0.04189799 44.4974823 0.05690193 C46.00611 0.06207354 47.51476814 0.06161433 49.02339172 0.05535698 C51.13474361 0.0498866 53.24431947 0.0703333 55.35546875 0.09765625 C56.55506226 0.10385483 57.75465576 0.11005341 58.99060059 0.11643982 C62.91831603 0.75069388 64.55066079 1.64351032 67.17773438 4.63110352 C67.81265259 7.81860352 67.81265259 7.81860352 67.82470703 11.63110352 C67.83346863 12.32751953 67.84223022 13.02393555 67.85125732 13.74145508 C67.87322652 16.03864234 67.85871011 18.33389744 67.84179688 20.63110352 C67.84516579 22.2300656 67.85001904 23.82902519 67.85629272 25.42797852 C67.86366059 28.77718516 67.85296221 32.12572452 67.82958984 35.47485352 C67.80110102 39.76608388 67.81750561 44.05575082 67.84745216 48.34692383 C67.86552811 51.64815024 67.859766 54.94900652 67.8468132 58.25024414 C67.84347995 59.83227728 67.8475635 61.41434412 67.85921097 62.99633789 C67.87192598 65.20883043 67.85253999 67.41879886 67.82470703 69.63110352 C67.81874008 71.51829102 67.81874008 71.51829102 67.81265259 73.44360352 C67.17773438 76.63110352 67.17773438 76.63110352 65.06369019 79.03526306 C61.57288863 80.9655637 59.33538598 81.14398563 55.35546875 81.16455078 C54.68977371 81.17316635 54.02407867 81.18178192 53.33821106 81.19065857 C51.1489009 81.2132673 48.96087601 81.20659075 46.77148438 81.19750977 C45.2436078 81.20274736 43.71573447 81.20902434 42.18786621 81.21629333 C38.99016066 81.22668779 35.79290038 81.22214978 32.59521484 81.20751953 C28.50254971 81.19032474 24.41128761 81.21383853 20.31877899 81.24900913 C17.16508732 81.27099537 14.01173084 81.26953901 10.85798645 81.26124382 C9.34933431 81.26042511 7.84065737 81.26727337 6.33207703 81.28201485 C4.22051327 81.29948772 2.11146374 81.28490236 0 81.26220703 C-1.19959351 81.26124527 -2.39918701 81.26028351 -3.63513184 81.2592926 C-7.85055253 80.42842655 -9.30230114 79.07921654 -11.82226562 75.63110352 C-12.45718384 72.40600586 -12.45718384 72.40600586 -12.46923828 68.71704102 C-12.48238068 67.7038681 -12.48238068 67.7038681 -12.49578857 66.67022705 C-12.51770931 64.4481897 -12.5032591 62.22815936 -12.48632812 60.00610352 C-12.48969845 58.45580668 -12.49455287 56.90551242 -12.50082397 55.35522461 C-12.50818526 52.11033911 -12.49751489 48.86614306 -12.47412109 45.62133789 C-12.44563245 41.46810021 -12.4620406 37.316478 -12.49198341 33.16329956 C-12.5100773 29.96325575 -12.50428907 26.76359308 -12.49134445 23.5635376 C-12.48801615 22.03257047 -12.49207731 20.5015684 -12.50374222 18.97064209 C-12.5164871 16.82788862 -12.49703056 14.68772703 -12.46923828 12.54516602 C-12.46526031 11.32780762 -12.46128235 10.11044922 -12.45718384 8.85620117 C-11.06496504 1.78435872 -6.71202962 0.0053813 0 0 Z M5.17773438 17.63110352 C5.17773438 32.81110352 5.17773438 47.99110352 5.17773438 63.63110352 C20.02773438 63.63110352 34.87773437 63.63110352 50.17773438 63.63110352 C50.17773438 48.45110352 50.17773438 33.27110352 50.17773438 17.63110352 C35.32773437 17.63110352 20.47773438 17.63110352 5.17773438 17.63110352 Z " fill="#000000" transform="translate(437.822265625,411.368896484375)"/>
<path d="M0 0 C0.68666245 -0.00700928 1.37332489 -0.01401855 2.08079529 -0.02124023 C4.34529338 -0.038812 6.6085366 -0.02720182 8.87304688 -0.01367188 C10.4495874 -0.01636706 12.0261263 -0.0202497 13.60266113 -0.02526855 C16.90470221 -0.03116244 20.2063101 -0.02260466 23.50830078 -0.00390625 C27.73880748 0.01888381 31.96829915 0.00576006 36.19876862 -0.01819611 C39.4536299 -0.03265739 42.70825094 -0.02804671 45.96311951 -0.01768494 C47.52282329 -0.01501853 49.08254895 -0.01828442 50.64222717 -0.02760315 C52.8232695 -0.0377749 55.00267334 -0.02226229 57.18359375 0 C58.42395386 0.00318237 59.66431396 0.00636475 60.94226074 0.00964355 C64.09179688 0.51757812 64.09179688 0.51757812 66.49121094 2.11816406 C68.65024698 5.35474219 68.59942144 7.54628519 68.609375 11.42578125 C68.61638428 12.1124437 68.62339355 12.79910614 68.63061523 13.50657654 C68.648187 15.77107463 68.63657682 18.03431785 68.62304688 20.29882812 C68.62574206 21.87536865 68.6296247 23.45190755 68.63464355 25.02844238 C68.64053744 28.33048346 68.63197966 31.63209135 68.61328125 34.93408203 C68.59049119 39.16458873 68.60361494 43.3940804 68.62757111 47.62454987 C68.64203239 50.87941115 68.63742171 54.13403219 68.62705994 57.38890076 C68.62439353 58.94860454 68.62765942 60.5083302 68.63697815 62.06800842 C68.6471499 64.24905075 68.63163729 66.42845459 68.609375 68.609375 C68.60619263 69.84973511 68.60301025 71.09009521 68.59973145 72.36804199 C68.09179688 75.51757812 68.09179688 75.51757812 66.49121094 77.91699219 C63.25463281 80.07602823 61.06308981 80.02520269 57.18359375 80.03515625 C56.4969313 80.04216553 55.81026886 80.0491748 55.10279846 80.05639648 C52.83830037 80.07396825 50.57505715 80.06235807 48.31054688 80.04882812 C46.73400635 80.05152331 45.15746745 80.05540595 43.58093262 80.0604248 C40.27889154 80.06631869 36.97728365 80.05776091 33.67529297 80.0390625 C29.44478627 80.01627244 25.2152946 80.02939619 20.98482513 80.05335236 C17.72996385 80.06781364 14.47534281 80.06320296 11.22047424 80.05284119 C9.66077046 80.05017478 8.1010448 80.05344067 6.54136658 80.0627594 C4.36032425 80.07293115 2.18092041 80.05741854 0 80.03515625 C-1.24036011 80.03197388 -2.48072021 80.0287915 -3.75866699 80.0255127 C-6.90820312 79.51757812 -6.90820312 79.51757812 -9.30761719 77.91699219 C-11.46665323 74.68041406 -11.41582769 72.48887106 -11.42578125 68.609375 C-11.43279053 67.92271255 -11.4397998 67.23605011 -11.44702148 66.52857971 C-11.46459325 64.26408162 -11.45298307 62.0008384 -11.43945312 59.73632812 C-11.44214831 58.1597876 -11.44603095 56.5832487 -11.4510498 55.00671387 C-11.45694369 51.70467279 -11.44838591 48.4030649 -11.4296875 45.10107422 C-11.40689744 40.87056752 -11.42002119 36.64107585 -11.44397736 32.41060638 C-11.45843864 29.1557451 -11.45382796 25.90112406 -11.44346619 22.64625549 C-11.44079978 21.08655171 -11.44406567 19.52682605 -11.4533844 17.96714783 C-11.46355615 15.7861055 -11.44804354 13.60670166 -11.42578125 11.42578125 C-11.42259888 10.18542114 -11.4194165 8.94506104 -11.4161377 7.66711426 C-10.90820312 4.51757812 -10.90820312 4.51757812 -9.30761719 2.11816406 C-6.07103906 -0.04087198 -3.87949606 0.00995356 0 0 Z M6.09179688 17.51757812 C6.09179688 32.36757813 6.09179688 47.21757812 6.09179688 62.51757812 C20.94179688 62.51757812 35.79179687 62.51757812 51.09179688 62.51757812 C51.09179688 47.66757812 51.09179688 32.81757813 51.09179688 17.51757812 C36.24179687 17.51757812 21.39179688 17.51757812 6.09179688 17.51757812 Z " fill="#000000" transform="translate(349.908203125,283.482421875)"/>
<path d="M0 0 C0.68666245 -0.00700928 1.37332489 -0.01401855 2.08079529 -0.02124023 C4.34529338 -0.038812 6.6085366 -0.02720182 8.87304688 -0.01367188 C10.4495874 -0.01636706 12.0261263 -0.0202497 13.60266113 -0.02526855 C16.90470221 -0.03116244 20.2063101 -0.02260466 23.50830078 -0.00390625 C27.73880748 0.01888381 31.96829915 0.00576006 36.19876862 -0.01819611 C39.4536299 -0.03265739 42.70825094 -0.02804671 45.96311951 -0.01768494 C47.52282329 -0.01501853 49.08254895 -0.01828442 50.64222717 -0.02760315 C52.8232695 -0.0377749 55.00267334 -0.02226229 57.18359375 0 C58.42395386 0.00318237 59.66431396 0.00636475 60.94226074 0.00964355 C64.09179688 0.51757812 64.09179688 0.51757812 66.49121094 2.11816406 C68.65024698 5.35474219 68.59942144 7.54628519 68.609375 11.42578125 C68.61638428 12.1124437 68.62339355 12.79910614 68.63061523 13.50657654 C68.648187 15.77107463 68.63657682 18.03431785 68.62304688 20.29882812 C68.62574206 21.87536865 68.6296247 23.45190755 68.63464355 25.02844238 C68.64053744 28.33048346 68.63197966 31.63209135 68.61328125 34.93408203 C68.59049119 39.16458873 68.60361494 43.3940804 68.62757111 47.62454987 C68.64203239 50.87941115 68.63742171 54.13403219 68.62705994 57.38890076 C68.62439353 58.94860454 68.62765942 60.5083302 68.63697815 62.06800842 C68.6471499 64.24905075 68.63163729 66.42845459 68.609375 68.609375 C68.60619263 69.84973511 68.60301025 71.09009521 68.59973145 72.36804199 C68.09179688 75.51757812 68.09179688 75.51757812 66.49121094 77.91699219 C63.25463281 80.07602823 61.06308981 80.02520269 57.18359375 80.03515625 C56.4969313 80.04216553 55.81026886 80.0491748 55.10279846 80.05639648 C52.83830037 80.07396825 50.57505715 80.06235807 48.31054688 80.04882812 C46.73400635 80.05152331 45.15746745 80.05540595 43.58093262 80.0604248 C40.27889154 80.06631869 36.97728365 80.05776091 33.67529297 80.0390625 C29.44478627 80.01627244 25.2152946 80.02939619 20.98482513 80.05335236 C17.72996385 80.06781364 14.47534281 80.06320296 11.22047424 80.05284119 C9.66077046 80.05017478 8.1010448 80.05344067 6.54136658 80.0627594 C4.36032425 80.07293115 2.18092041 80.05741854 0 80.03515625 C-1.24036011 80.03197388 -2.48072021 80.0287915 -3.75866699 80.0255127 C-6.90820312 79.51757812 -6.90820312 79.51757812 -9.30761719 77.91699219 C-11.46665323 74.68041406 -11.41582769 72.48887106 -11.42578125 68.609375 C-11.43279053 67.92271255 -11.4397998 67.23605011 -11.44702148 66.52857971 C-11.46459325 64.26408162 -11.45298307 62.0008384 -11.43945312 59.73632812 C-11.44214831 58.1597876 -11.44603095 56.5832487 -11.4510498 55.00671387 C-11.45694369 51.70467279 -11.44838591 48.4030649 -11.4296875 45.10107422 C-11.40689744 40.87056752 -11.42002119 36.64107585 -11.44397736 32.41060638 C-11.45843864 29.1557451 -11.45382796 25.90112406 -11.44346619 22.64625549 C-11.44079978 21.08655171 -11.44406567 19.52682605 -11.4533844 17.96714783 C-11.46355615 15.7861055 -11.44804354 13.60670166 -11.42578125 11.42578125 C-11.42259888 10.18542114 -11.4194165 8.94506104 -11.4161377 7.66711426 C-10.90820312 4.51757812 -10.90820312 4.51757812 -9.30761719 2.11816406 C-6.07103906 -0.04087198 -3.87949606 0.00995356 0 0 Z M6.09179688 17.51757812 C6.09179688 32.36757813 6.09179688 47.21757812 6.09179688 62.51757812 C20.94179687 62.51757812 35.79179687 62.51757812 51.09179688 62.51757812 C51.09179688 47.66757812 51.09179688 32.81757813 51.09179688 17.51757812 C36.24179688 17.51757812 21.39179688 17.51757812 6.09179688 17.51757812 Z " fill="#000000" transform="translate(106.908203125,283.482421875)"/>
<path d="M0 0 C12.97331488 8.63590976 20.01490428 19.10661679 23.29296875 34.421875 C24.90465123 49.55378277 20.48178674 61.89459881 11.10546875 73.609375 C1.88996291 83.65895532 -10.13942689 87.94349478 -23.45703125 88.609375 C-37.19450692 88.31877455 -48.60669397 83.35969931 -58.51953125 73.828125 C-67.8183999 63.59936948 -71.51251492 50.79918024 -71.08984375 37.1328125 C-69.82114974 24.83424815 -64.88264557 14.70230744 -55.70703125 6.421875 C-55.23007813 5.94105469 -54.753125 5.46023437 -54.26171875 4.96484375 C-40.29619798 -8.35974732 -16.23324289 -9.46353554 0 0 Z M-47.70703125 22.421875 C-52.52564583 30.20118063 -54.62595253 37.28517201 -53.70703125 46.421875 C-51.47413169 55.35347323 -46.37096393 62.17449502 -38.76953125 67.296875 C-31.26773233 71.55076864 -24.146996 72.22036331 -15.70703125 70.421875 C-8.03155688 67.72538911 -1.43001103 63.32821966 2.57421875 56.11328125 C6.50991022 47.55315231 7.69223218 39.97249324 4.73046875 30.859375 C1.1192764 21.83139412 -4.8215854 16.24869364 -13.70703125 12.421875 C-26.1961264 8.45385292 -39.32946799 12.57358397 -47.70703125 22.421875 Z " fill="#000000" transform="translate(280.70703125,152.578125)"/>
<path d="M0 0 C1.13984848 -0.0071553 2.27969696 -0.01431061 3.4540863 -0.02168274 C4.71074097 -0.02437164 5.96739563 -0.02706055 7.26213074 -0.02983093 C8.58087692 -0.03640213 9.89962311 -0.04297333 11.2583313 -0.04974365 C14.88239386 -0.06715875 18.50644323 -0.07770678 22.13053727 -0.08594918 C24.39431567 -0.09109825 26.65808996 -0.09717402 28.92186546 -0.10346031 C36.00345835 -0.1225138 43.08504081 -0.13674461 50.16665441 -0.14507228 C58.34350972 -0.15484642 66.52009446 -0.18116964 74.69685441 -0.22157317 C81.01539428 -0.25172425 87.33385654 -0.26654018 93.65246695 -0.26985329 C97.42706181 -0.27220495 101.20136765 -0.28117979 104.97588539 -0.30631447 C108.52756553 -0.32958294 112.07876612 -0.33383376 115.6305027 -0.32355309 C117.55351996 -0.3228211 119.4765128 -0.34192107 121.39942932 -0.36161804 C123.12189125 -0.35120232 123.12189125 -0.35120232 124.87915039 -0.34057617 C125.87485456 -0.34296453 126.87055872 -0.34535288 127.89643574 -0.34781361 C131.41654498 0.28958413 133.09416918 1.66879595 135.63005066 4.14717102 C136.86679317 7.78010216 136.97463269 9.38909055 135.38005066 12.89717102 C133.63005066 15.14717102 133.63005066 15.14717102 130.63005066 17.14717102 C127.99145508 17.38768005 127.99145508 17.38768005 124.78166199 17.3742218 C122.9801342 17.37399521 122.9801342 17.37399521 121.14221191 17.37376404 C119.84526901 17.36344147 118.54832611 17.3531189 117.21208191 17.34248352 C115.87115693 17.33875257 114.53022922 17.33590599 113.18930054 17.33390808 C109.66290233 17.32627801 106.13666932 17.30663505 102.6103363 17.28450012 C99.01081069 17.26402812 95.41125835 17.25490348 91.81169128 17.24482727 C84.7510769 17.22338847 77.69057457 17.18926016 70.63005066 17.14717102 C70.63893311 17.97766968 70.64781555 18.80816833 70.65696716 19.66383362 C70.73712416 27.49151901 70.79802056 35.31906652 70.83729935 43.14706802 C70.85817199 47.1715318 70.886483 51.19565637 70.93180847 55.21992493 C70.97527886 59.10380638 70.9991902 62.98736164 71.00955963 66.87146759 C71.01694896 68.35307195 71.03137884 69.83465851 71.05297089 71.31612396 C71.08202278 73.39203423 71.08600622 75.46659789 71.08415222 77.54267883 C71.09303467 78.72404419 71.10191711 79.90540955 71.11106873 81.12257385 C70.53198055 84.7638268 69.50927314 85.92189439 66.63005066 88.14717102 C63.88915838 88.87522053 61.3998386 88.72160343 58.63005066 88.14717102 C55.66146909 85.93976421 54.80139275 84.66119729 53.63005066 81.14717102 C53.5408318 79.07688829 53.51245415 77.00379513 53.51652527 74.93159485 C53.51663857 73.00994255 53.51663857 73.00994255 53.51675415 71.04946899 C53.52186079 69.65104636 53.52707679 68.25262412 53.53239441 66.85420227 C53.53425977 65.42359466 53.53568312 63.99298641 53.53668213 62.56237793 C53.54049799 58.79930351 53.55032034 55.03626777 53.56138611 51.27320862 C53.57162023 47.43237328 53.57618404 43.59153169 53.58122253 39.75068665 C53.59194344 32.21616382 53.6090087 24.68167284 53.63005066 17.14717102 C52.90199722 17.15605347 52.17394379 17.16493591 51.42382812 17.17408752 C44.55303723 17.25433053 37.68231663 17.3151847 30.81117725 17.35441971 C27.27883684 17.37526945 23.74688452 17.40353781 20.21476746 17.44892883 C16.15133499 17.50081927 12.08830838 17.52013769 8.02458191 17.53779602 C6.75983536 17.55844116 5.49508881 17.5790863 4.1920166 17.60035706 C3.01116989 17.60065918 1.83032318 17.6009613 0.61369324 17.60127258 C-0.94184517 17.61459625 -0.94184517 17.61459625 -2.52880859 17.62818909 C-6.14361156 17.01618648 -7.79457866 15.71553343 -10.36994934 13.14717102 C-11.43244934 9.70967102 -11.43244934 9.70967102 -11.36994934 6.14717102 C-8.09818618 0.95747773 -5.92297866 0.02544985 0 0 Z " fill="#000000" transform="translate(194.3699493408203,314.8528289794922)"/>
<path d="M0 0 C0.80232056 -0.00619858 1.60464111 -0.01239716 2.43127441 -0.01878357 C4.12230215 -0.02586618 5.81339984 -0.02273491 7.50439453 -0.01000977 C10.08626949 0.00386605 12.6645241 -0.03024323 15.24609375 -0.06835938 C16.89323005 -0.06931059 18.54037087 -0.06745164 20.1875 -0.0625 C21.3392572 -0.08238731 21.3392572 -0.08238731 22.51428223 -0.10267639 C26.26022009 -0.03785327 28.29213275 0.3364109 31.29710388 2.62782288 C34.10275186 6.2176796 34.29755983 8.84006538 34.22485352 13.21484375 C34.23200882 13.96832092 34.23916412 14.7217981 34.24653625 15.49810791 C34.26339553 17.97983094 34.24403899 20.4597403 34.22265625 22.94140625 C34.22348521 24.67106272 34.22594563 26.4007191 34.22996521 28.13037109 C34.23282129 31.75186939 34.21814104 35.37274858 34.19067383 38.99414062 C34.15659097 43.63144463 34.16261082 48.26764179 34.1813364 52.90499878 C34.19191542 56.47559805 34.18296046 60.04594069 34.16795158 63.61651611 C34.16277591 65.32610308 34.16324412 67.03571692 34.16949654 68.74530029 C34.17495984 71.13677401 34.15454032 73.52667442 34.12719727 75.91796875 C34.13372314 76.62149475 34.14024902 77.32502075 34.14697266 78.04986572 C34.0795837 81.52379703 33.62571545 83.51384197 31.8065033 86.50537109 C29.16443616 88.96628405 27.25832076 89.15955594 23.69140625 89.23046875 C20.36485408 88.1773703 18.80791579 86.21179008 16.59375 83.56640625 C15.99247742 80.45951843 15.99247742 80.45951843 16.02612305 76.94018555 C16.02539291 76.29571976 16.02466278 75.65125397 16.02391052 74.98725891 C16.02737609 72.87083836 16.06617973 70.75665777 16.10546875 68.640625 C16.11480076 67.1680471 16.12191504 65.69545362 16.12690735 64.22285461 C16.14594726 60.35745971 16.19502011 56.49301258 16.25042725 52.62799072 C16.30168587 48.6798586 16.32443537 44.73157248 16.34960938 40.78320312 C16.40314351 33.04383996 16.4884176 25.30525619 16.59375 17.56640625 C15.85737305 17.57687988 15.12099609 17.58735352 14.36230469 17.59814453 C11.02282124 17.63974327 7.68339235 17.66574489 4.34375 17.69140625 C2.60544922 17.71654297 2.60544922 17.71654297 0.83203125 17.7421875 C-0.28300781 17.74863281 -1.39804687 17.75507813 -2.546875 17.76171875 C-3.57329102 17.77219238 -4.59970703 17.78266602 -5.65722656 17.79345703 C-8.45804449 17.56212837 -10.05400553 17.06517557 -12.40625 15.56640625 C-14.45575964 12.93132243 -14.4042223 11.45285505 -14.34375 8.06640625 C-12.34067758 0.58826923 -6.95073991 -0.04489848 0 0 Z " fill="#000000" transform="translate(440.40625,314.43359375)"/>
<path d="M0 0 C0.80232056 -0.00241196 1.60464111 -0.00482391 2.43127441 -0.00730896 C4.12236489 -0.00633237 5.81348807 0.00701667 7.50439453 0.03198242 C10.08607073 0.06630416 12.6643234 0.05263157 15.24609375 0.03320312 C16.89324367 0.04010196 18.54038479 0.0497747 20.1875 0.0625 C20.95533813 0.05754013 21.72317627 0.05258026 22.51428223 0.04747009 C26.20135538 0.12809085 28.40353229 0.51002018 31.55664062 2.48071289 C34.17374719 5.2405308 34.59375 6.84315213 34.59375 10.62890625 C32.98963152 14.15796692 31.85215638 15.45663533 28.59375 17.62890625 C25.95825195 17.85595703 25.95825195 17.85595703 22.83203125 17.82421875 C21.71376953 17.81777344 20.59550781 17.81132812 19.44335938 17.8046875 C17.69249023 17.77955078 17.69249023 17.77955078 15.90625 17.75390625 C14.72740234 17.74488281 13.54855469 17.73585938 12.33398438 17.7265625 C9.42036974 17.70297048 6.50716108 17.67005165 3.59375 17.62890625 C3.60041183 18.43212814 3.60707367 19.23535004 3.61393738 20.06291199 C3.67409997 27.64015055 3.71975044 35.21727297 3.74918652 42.79468822 C3.76482878 46.69013361 3.78604041 50.58538128 3.82006836 54.48071289 C3.85271368 58.2413915 3.87061385 62.00188019 3.87838173 65.76268959 C3.883916 67.19599712 3.89472321 68.62929451 3.91094017 70.06252098 C3.93278055 72.07307128 3.93397597 74.08381353 3.93432617 76.09448242 C3.94098801 77.23809738 3.94764984 78.38171234 3.95451355 79.5599823 C3.55053184 82.99655221 2.64766934 84.87009475 0.59375 87.62890625 C-2.53567465 89.19361858 -6.01707223 89.32592583 -9.40625 88.62890625 C-11.50230408 87.07896423 -11.50230408 87.07896423 -13.40625 84.62890625 C-13.80626279 81.95016425 -13.96408512 79.67972404 -13.93969727 77.00219727 C-13.94831284 76.23911255 -13.95692841 75.47602783 -13.96580505 74.68981934 C-13.98848465 72.17047076 -13.98172268 69.65223283 -13.97265625 67.1328125 C-13.97789127 65.3793047 -13.98416731 63.62579973 -13.99143982 61.87229919 C-14.00184789 58.19785306 -13.99727731 54.52379408 -13.98266602 50.84936523 C-13.96548409 46.14354993 -13.98896327 41.43895628 -14.02415562 36.73327732 C-14.04613154 33.11207508 -14.04468762 29.49116502 -14.0363903 25.86991692 C-14.03557075 24.13518878 -14.04243491 22.40043921 -14.05716133 20.66577339 C-14.07461027 18.23809196 -14.06006446 15.81260352 -14.03735352 13.38500977 C-14.04904572 12.67056198 -14.06073792 11.9561142 -14.07278442 11.22001648 C-14.00023949 7.40293481 -13.48398401 5.72859551 -11.10960388 2.68359375 C-7.48736828 -0.06949095 -4.37495296 -0.07554202 0 0 Z " fill="#000000" transform="translate(53.40625,314.37109375)"/>
<path d="M0 0 C0.9987767 -0.00861557 1.99755341 -0.01723114 3.02659607 -0.02610779 C6.32984286 -0.04882075 9.63224502 -0.04201921 12.93554688 -0.03295898 C15.22953545 -0.03819196 17.52352187 -0.04446724 19.81750488 -0.05174255 C24.62599816 -0.06215648 29.43419568 -0.05757049 34.24267578 -0.04296875 C40.4102698 -0.02577465 46.5769328 -0.04927966 52.74442291 -0.08445835 C57.48161006 -0.10639832 62.21857324 -0.10499913 66.95579529 -0.09669304 C69.23002646 -0.09587176 71.5042738 -0.10276875 73.77845764 -0.11746407 C76.95575536 -0.13484766 80.13136458 -0.12041813 83.30859375 -0.09765625 C84.72228493 -0.11519455 84.72228493 -0.11519455 86.16453552 -0.13308716 C92.5240212 -0.0402029 92.5240212 -0.0402029 95.73840332 2.88539124 C97.48195434 6.14624426 97.76237918 7.88495342 97.15429688 11.53344727 C94.27556215 16.15998522 94.27556215 16.15998522 91.26899529 17.1613884 C89.15707581 17.53295834 87.2122132 17.66473573 85.06912231 17.67388916 C84.26453583 17.6795993 83.45994934 17.68530945 82.63098145 17.69119263 C81.32018616 17.69286942 81.32018616 17.69286942 79.98291016 17.69458008 C79.05562103 17.69954498 78.12833191 17.70450989 77.17294312 17.70962524 C74.10682431 17.7242246 71.04075722 17.73104474 67.97460938 17.73657227 C65.84235635 17.742325 63.71010334 17.74808272 61.57785034 17.75384521 C57.10739908 17.76434848 52.63696577 17.77019575 48.16650391 17.77368164 C42.44102312 17.77916874 36.71577987 17.80320435 30.99037361 17.83165359 C26.58600166 17.85028449 22.18168693 17.85548579 17.7772789 17.85701752 C15.66658096 17.86004291 13.555884 17.8680676 11.44522476 17.8812027 C8.49145708 17.8982744 5.53826978 17.89638023 2.58447266 17.88989258 C1.71465759 17.89910736 0.84484253 17.90832214 -0.05133057 17.91781616 C-5.05005115 17.88345706 -8.52369776 17.3343589 -12.84570312 14.53344727 C-14.41041545 11.40402261 -14.5427227 7.92262503 -13.84570312 4.53344727 C-10.30825831 -0.72051197 -5.75756371 -0.03986708 0 0 Z " fill="#000000" transform="translate(319.845703125,443.466552734375)"/>
<path d="M0 0 C0.9987767 -0.0071553 1.99755341 -0.01431061 3.02659607 -0.02168274 C6.3300441 -0.0385997 9.63214082 -0.01914868 12.93554688 0.00219727 C15.22953402 0.00136885 17.52352111 -0.0010895 19.81750488 -0.00511169 C24.62607686 -0.00797177 29.43418358 0.00675258 34.24267578 0.03417969 C40.41018893 0.06826222 46.57686994 0.06224591 52.74442291 0.04351711 C57.48161773 0.03295478 62.21861851 0.04187809 66.95579529 0.05690193 C69.23001021 0.0620898 71.50424535 0.06159464 73.77845764 0.05535698 C76.95561382 0.04991424 80.13157381 0.07025089 83.30859375 0.09765625 C84.25105453 0.09113037 85.19351532 0.08460449 86.16453552 0.07788086 C92.53228269 0.17140392 92.53228269 0.17140392 95.7364502 2.53944397 C97.7094527 5.45008979 97.72089115 7.30661743 97.54882812 10.72875977 C96.9404158 13.66239147 95.54283173 14.92500719 93.15429688 16.63110352 C89.13752258 17.97002828 85.2690389 17.77852656 81.08056641 17.77636719 C79.68744232 17.78140511 79.68744232 17.78140511 78.26617432 17.7865448 C75.1898058 17.79605924 72.11349169 17.79799818 69.03710938 17.79907227 C66.90103126 17.80228457 64.76495338 17.80564862 62.62887573 17.80915833 C58.14824921 17.81515088 53.66764197 17.8169981 49.18701172 17.81640625 C43.44464162 17.81630464 37.70239519 17.82995549 31.9600544 17.84717846 C27.54714387 17.85829535 23.13426327 17.86032555 18.72134018 17.85979652 C16.60424244 17.86097716 14.48714394 17.86540361 12.37005997 17.87312889 C9.40889061 17.8829221 6.44799005 17.88005327 3.48681641 17.87402344 C2.61183502 17.87964294 1.73685364 17.88526245 0.83535767 17.89105225 C-4.40735735 17.86391341 -8.69627227 17.70641607 -12.65820312 13.88110352 C-14.25681525 10.85215423 -14.32941448 9.017083 -13.84570312 5.63110352 C-10.53072732 -0.59500827 -6.36135246 -0.07891915 0 0 Z " fill="#000000" transform="translate(110.845703125,443.368896484375)"/>
<path d="M0 0 C1.49756836 -0.04350586 1.49756836 -0.04350586 3.02539062 -0.08789062 C10.41857012 -0.15192216 10.41857012 -0.15192216 14.32421875 2.20703125 C17.58649869 5.89333919 17.33574773 8.92241994 17.33276367 13.63623047 C17.33612228 14.39087585 17.3394809 15.14552124 17.34294128 15.92303467 C17.35246357 18.42526889 17.3543951 20.92743627 17.35546875 23.4296875 C17.35868069 25.16602608 17.36204471 26.90236439 17.36555481 28.63870239 C17.37154945 32.28209053 17.37339439 35.92545493 17.37280273 39.56884766 C17.37270115 44.23855698 17.38634817 48.90811413 17.40357494 53.5777874 C17.41469176 57.16542256 17.41672203 60.75302092 17.41619301 64.34067154 C17.4173738 66.06226246 17.42180116 67.78385431 17.42952538 69.50542831 C17.43931789 71.91372079 17.4364501 74.32168272 17.43041992 76.72998047 C17.43603943 77.44181488 17.44165894 78.15364929 17.44744873 78.88705444 C17.42434453 82.51649365 17.26343299 85.26893309 15.1875 88.3125 C11.96794012 90.61218563 9.06190468 90.86598638 5.1875 90.3125 C1.9374647 87.74063292 0.36558796 86.25520243 -0.41377258 82.12968445 C-0.40266953 80.93277481 -0.39156647 79.73586517 -0.38012695 78.50268555 C-0.38085709 77.83871262 -0.38158722 77.17473969 -0.38233948 76.49064636 C-0.37887286 74.30932148 -0.34006313 72.13016759 -0.30078125 69.94921875 C-0.29144965 68.43179999 -0.28433517 66.91436612 -0.27934265 65.39692688 C-0.26029966 61.41317775 -0.21122383 57.43034774 -0.15582275 53.44696045 C-0.10457098 49.37817823 -0.08181606 45.30924672 -0.05664062 41.24023438 C-0.00310098 33.26390227 0.08217733 25.28831564 0.1875 17.3125 C-0.63234375 17.35890625 -1.4521875 17.4053125 -2.296875 17.453125 C-3.91335938 17.50726563 -3.91335938 17.50726563 -5.5625 17.5625 C-7.16351563 17.63210937 -7.16351563 17.63210937 -8.796875 17.703125 C-11.8125 17.3125 -11.8125 17.3125 -14.140625 15.51171875 C-16.4989484 12.40953166 -16.8125 10.18469417 -16.8125 6.3125 C-12.34744123 -0.77000701 -7.69580225 0.07366754 0 0 Z " fill="#000000" transform="translate(369.8125,184.6875)"/>
<path d="M0 0 C1.49756836 -0.04350586 1.49756836 -0.04350586 3.02539062 -0.08789062 C10.39341437 -0.15170429 10.39341437 -0.15170429 14.328125 2.1484375 C16.7184904 4.93050144 17.11299544 6.66177649 17.1875 10.3125 C16.13852418 14.15874466 15.58212539 15.04941641 12.1875 17.3125 C9.26953125 17.5078125 9.26953125 17.5078125 6 17.4375 C4.36998047 17.41042969 4.36998047 17.41042969 2.70703125 17.3828125 C1.45986328 17.34800781 1.45986328 17.34800781 0.1875 17.3125 C0.19194122 18.14299866 0.19638245 18.97349731 0.20095825 19.8291626 C0.24103698 27.65689255 0.27148544 35.48458802 0.29112434 43.312397 C0.30156032 47.33672718 0.3157161 51.36097254 0.33837891 55.38525391 C0.36011396 59.26910994 0.37207003 63.15288441 0.37725449 67.03679657 C0.38094905 68.51836175 0.38816362 69.99992249 0.39896011 71.48145294 C0.413484 73.55706927 0.41547759 75.63234882 0.41455078 77.70800781 C0.418992 78.88937317 0.42343323 80.07073853 0.42800903 81.28790283 C0.19402963 84.23038461 -0.20610373 85.86980364 -1.8125 88.3125 C-5.03205988 90.61218563 -7.93809532 90.86598638 -11.8125 90.3125 C-15.33285464 87.60867789 -16.67122175 86.12471007 -17.44068909 81.70103455 C-17.46718779 80.28913788 -17.46641225 78.87656071 -17.44360352 77.46459961 C-17.45075882 76.690009 -17.45791412 75.9154184 -17.46528625 75.11735535 C-17.48214727 72.56591183 -17.46278942 70.01623175 -17.44140625 67.46484375 C-17.44223511 65.6879512 -17.44469514 63.91105873 -17.44871521 62.13417053 C-17.4515713 58.41432556 -17.43688929 54.69508334 -17.40942383 50.9753418 C-17.37531622 46.20791279 -17.38136911 41.44155969 -17.4000864 36.67407894 C-17.41065496 33.00658706 -17.40172037 29.33934551 -17.38670158 25.67187691 C-17.3815199 23.91401475 -17.38200141 22.15612645 -17.38824654 20.39826775 C-17.39369815 17.94194172 -17.37332833 15.4871563 -17.34594727 13.03100586 C-17.35247314 12.30518311 -17.35899902 11.57936035 -17.36572266 10.83154297 C-17.30069769 7.40050447 -17.0576596 5.62337919 -14.90415955 2.89259338 C-10.26127524 -0.61476076 -5.63887405 0.05397774 0 0 Z " fill="#000000" transform="translate(143.8125,184.6875)"/>
<path d="M0 0 C2.4375 1.625 2.4375 1.625 4 4 C4.5625 6.9375 4.5625 6.9375 4 10 C1.9375 12.9375 1.9375 12.9375 -1 15 C-4.54361243 15 -6.86591591 14.65850044 -9.9375 12.875 C-11.6712306 9.81547541 -11.42145216 7.43182475 -11 4 C-8.11188513 -0.5054592 -5.11821063 -0.73117295 0 0 Z " fill="#000000" transform="translate(106,43)"/>
<path d="M0 0 C2.5625 2.0625 2.5625 2.0625 4 5 C4.0625 8.625 4.0625 8.625 3 12 C0.1628797 14.59393856 -1.28542702 15.02858292 -5.125 14.875 C-9.52810903 13.53492334 -9.52810903 13.53492334 -11 11 C-11.53468062 7.44288862 -11.62733051 4.25466102 -10 1 C-6.71960404 -0.64019798 -3.52085131 -0.74234817 0 0 Z " fill="#000000" transform="translate(79,43)"/>
<path d="M0 0 C2.5624102 0.04583918 3.82502503 0.07582098 6.0625 1.375 C7.56551393 4.02737753 7.93916141 6.21463635 8.125 9.25 C7.31970612 11.88550724 6.57157038 12.91507222 4.375 14.5625 C1.27805467 15.50878885 -0.77529156 15.10736616 -3.875 14.25 C-6.19539251 12.64972931 -6.77469741 11.52224989 -7.75 8.875 C-7.91173305 5.47860594 -6.83539694 3.96439577 -4.875 1.25 C-3.875 0.25 -3.875 0.25 0 0 Z " fill="#000000" transform="translate(47.875,42.75)"/>
</svg>
